<mxfile host="Electron" modified="2023-06-04T09:45:57.940Z" agent="Mozilla/5.0 (Windows NT 10.0; Win64; x64) AppleWebKit/537.36 (KHTML, like Gecko) draw.io/21.2.8 Chrome/112.0.5615.165 Electron/24.2.0 Safari/537.36" etag="LWqrHkpATcMEzTGYSqb2" version="21.2.8" type="device">
  <diagram name="Page-1" id="5d7acffa-a066-3a61-03fe-96351882024d">
    <mxGraphModel dx="1036" dy="614" grid="1" gridSize="10" guides="1" tooltips="1" connect="1" arrows="1" fold="1" page="1" pageScale="1" pageWidth="1100" pageHeight="850" background="#ffffff" math="0" shadow="0">
      <root>
        <mxCell id="0" />
        <mxCell id="1" parent="0" />
        <mxCell id="QZWRVkWgOH4tQiXEA4vU-1" value="&lt;font style=&quot;font-size: 16px;&quot;&gt;报名记录&lt;/font&gt;" style="html=1;rounded=0;shadow=0;comic=0;labelBackgroundColor=none;strokeWidth=2;fontFamily=Verdana;fontSize=12;align=center;shape=mxgraph.ios7ui.horLines;" vertex="1" parent="1">
          <mxGeometry x="440" y="310" width="135" height="50" as="geometry" />
        </mxCell>
        <mxCell id="QZWRVkWgOH4tQiXEA4vU-2" value="检查报考条件&lt;br style=&quot;font-size: 16px;&quot;&gt;1.1" style="ellipse;whiteSpace=wrap;html=1;fontSize=16;" vertex="1" parent="1">
          <mxGeometry x="350" y="160" width="120" height="80" as="geometry" />
        </mxCell>
        <mxCell id="QZWRVkWgOH4tQiXEA4vU-3" value="" style="endArrow=classic;html=1;rounded=0;entryX=0;entryY=0.5;entryDx=0;entryDy=0;" edge="1" parent="1" target="QZWRVkWgOH4tQiXEA4vU-2">
          <mxGeometry width="50" height="50" relative="1" as="geometry">
            <mxPoint x="210" y="200" as="sourcePoint" />
            <mxPoint x="280" y="170" as="targetPoint" />
          </mxGeometry>
        </mxCell>
        <mxCell id="QZWRVkWgOH4tQiXEA4vU-4" value="&lt;span style=&quot;font-size: 16px;&quot;&gt;报名信息、&lt;br&gt;缴费记录&lt;br&gt;&lt;/span&gt;" style="edgeLabel;html=1;align=center;verticalAlign=middle;resizable=0;points=[];" vertex="1" connectable="0" parent="QZWRVkWgOH4tQiXEA4vU-3">
          <mxGeometry x="0.2482" y="-2" relative="1" as="geometry">
            <mxPoint x="-17" y="-2" as="offset" />
          </mxGeometry>
        </mxCell>
        <mxCell id="QZWRVkWgOH4tQiXEA4vU-35" value="" style="endArrow=classic;html=1;rounded=0;exitX=1;exitY=0.5;exitDx=0;exitDy=0;" edge="1" parent="1" source="QZWRVkWgOH4tQiXEA4vU-2">
          <mxGeometry width="50" height="50" relative="1" as="geometry">
            <mxPoint x="580" y="220" as="sourcePoint" />
            <mxPoint x="530" y="200" as="targetPoint" />
          </mxGeometry>
        </mxCell>
        <mxCell id="QZWRVkWgOH4tQiXEA4vU-36" value="检查缴费&lt;br style=&quot;font-size: 16px;&quot;&gt;1.2" style="ellipse;whiteSpace=wrap;html=1;fontSize=16;" vertex="1" parent="1">
          <mxGeometry x="530" y="160" width="120" height="80" as="geometry" />
        </mxCell>
        <mxCell id="QZWRVkWgOH4tQiXEA4vU-37" value="" style="endArrow=classic;html=1;rounded=0;exitX=0.363;exitY=0.988;exitDx=0;exitDy=0;exitPerimeter=0;entryX=0.486;entryY=-0.028;entryDx=0;entryDy=0;entryPerimeter=0;" edge="1" parent="1" source="QZWRVkWgOH4tQiXEA4vU-36" target="QZWRVkWgOH4tQiXEA4vU-1">
          <mxGeometry width="50" height="50" relative="1" as="geometry">
            <mxPoint x="720" y="360" as="sourcePoint" />
            <mxPoint x="770" y="310" as="targetPoint" />
          </mxGeometry>
        </mxCell>
      </root>
    </mxGraphModel>
  </diagram>
</mxfile>
